<?xml version="1.0" encoding="utf-8"?>
<svg xmlns="http://www.w3.org/2000/svg" xmlns:xlink="http://www.w3.org/1999/xlink" width="600" height="400" viewBox="0 0 2400 1600">
<defs>
  <clipPath id="clip900">
    <rect x="0" y="0" width="2400" height="1600"/>
  </clipPath>
</defs>
<defs>
  <clipPath id="clip901">
    <rect x="480" y="0" width="1681" height="1600"/>
  </clipPath>
</defs>
<defs>
  <clipPath id="clip902">
    <rect x="175" y="123" width="2178" height="1301"/>
  </clipPath>
</defs>
<polyline clip-path="url(#clip902)" style="stroke:#000000; stroke-linecap:round; stroke-linejoin:round; stroke-width:2; stroke-opacity:0.1; fill:none" points="216.319,1423.18 216.319,123.472 "/>
<polyline clip-path="url(#clip902)" style="stroke:#000000; stroke-linecap:round; stroke-linejoin:round; stroke-width:2; stroke-opacity:0.1; fill:none" points="735.023,1423.18 735.023,123.472 "/>
<polyline clip-path="url(#clip902)" style="stroke:#000000; stroke-linecap:round; stroke-linejoin:round; stroke-width:2; stroke-opacity:0.1; fill:none" points="1253.73,1423.18 1253.73,123.472 "/>
<polyline clip-path="url(#clip902)" style="stroke:#000000; stroke-linecap:round; stroke-linejoin:round; stroke-width:2; stroke-opacity:0.1; fill:none" points="1772.43,1423.18 1772.43,123.472 "/>
<polyline clip-path="url(#clip902)" style="stroke:#000000; stroke-linecap:round; stroke-linejoin:round; stroke-width:2; stroke-opacity:0.1; fill:none" points="2291.13,1423.18 2291.13,123.472 "/>
<polyline clip-path="url(#clip902)" style="stroke:#000000; stroke-linecap:round; stroke-linejoin:round; stroke-width:2; stroke-opacity:0.1; fill:none" points="175.445,1311.23 2352.76,1311.23 "/>
<polyline clip-path="url(#clip902)" style="stroke:#000000; stroke-linecap:round; stroke-linejoin:round; stroke-width:2; stroke-opacity:0.1; fill:none" points="175.445,1079.88 2352.76,1079.88 "/>
<polyline clip-path="url(#clip902)" style="stroke:#000000; stroke-linecap:round; stroke-linejoin:round; stroke-width:2; stroke-opacity:0.1; fill:none" points="175.445,848.527 2352.76,848.527 "/>
<polyline clip-path="url(#clip902)" style="stroke:#000000; stroke-linecap:round; stroke-linejoin:round; stroke-width:2; stroke-opacity:0.1; fill:none" points="175.445,617.177 2352.76,617.177 "/>
<polyline clip-path="url(#clip902)" style="stroke:#000000; stroke-linecap:round; stroke-linejoin:round; stroke-width:2; stroke-opacity:0.1; fill:none" points="175.445,385.827 2352.76,385.827 "/>
<polyline clip-path="url(#clip902)" style="stroke:#000000; stroke-linecap:round; stroke-linejoin:round; stroke-width:2; stroke-opacity:0.1; fill:none" points="175.445,154.477 2352.76,154.477 "/>
<polyline clip-path="url(#clip900)" style="stroke:#000000; stroke-linecap:round; stroke-linejoin:round; stroke-width:4; stroke-opacity:1; fill:none" points="175.445,1423.18 2352.76,1423.18 "/>
<polyline clip-path="url(#clip900)" style="stroke:#000000; stroke-linecap:round; stroke-linejoin:round; stroke-width:4; stroke-opacity:1; fill:none" points="216.319,1423.18 216.319,1404.28 "/>
<polyline clip-path="url(#clip900)" style="stroke:#000000; stroke-linecap:round; stroke-linejoin:round; stroke-width:4; stroke-opacity:1; fill:none" points="735.023,1423.18 735.023,1404.28 "/>
<polyline clip-path="url(#clip900)" style="stroke:#000000; stroke-linecap:round; stroke-linejoin:round; stroke-width:4; stroke-opacity:1; fill:none" points="1253.73,1423.18 1253.73,1404.28 "/>
<polyline clip-path="url(#clip900)" style="stroke:#000000; stroke-linecap:round; stroke-linejoin:round; stroke-width:4; stroke-opacity:1; fill:none" points="1772.43,1423.18 1772.43,1404.28 "/>
<polyline clip-path="url(#clip900)" style="stroke:#000000; stroke-linecap:round; stroke-linejoin:round; stroke-width:4; stroke-opacity:1; fill:none" points="2291.13,1423.18 2291.13,1404.28 "/>
<path clip-path="url(#clip900)" d="M193.703 1454.1 Q190.092 1454.1 188.264 1457.66 Q186.458 1461.2 186.458 1468.33 Q186.458 1475.44 188.264 1479.01 Q190.092 1482.55 193.703 1482.55 Q197.338 1482.55 199.143 1479.01 Q200.972 1475.44 200.972 1468.33 Q200.972 1461.2 199.143 1457.66 Q197.338 1454.1 193.703 1454.1 M193.703 1450.39 Q199.514 1450.39 202.569 1455 Q205.648 1459.58 205.648 1468.33 Q205.648 1477.06 202.569 1481.67 Q199.514 1486.25 193.703 1486.25 Q187.893 1486.25 184.815 1481.67 Q181.759 1477.06 181.759 1468.33 Q181.759 1459.58 184.815 1455 Q187.893 1450.39 193.703 1450.39 Z" fill="#000000" fill-rule="nonzero" fill-opacity="1" /><path clip-path="url(#clip900)" d="M213.865 1479.7 L218.75 1479.7 L218.75 1485.58 L213.865 1485.58 L213.865 1479.7 Z" fill="#000000" fill-rule="nonzero" fill-opacity="1" /><path clip-path="url(#clip900)" d="M238.935 1454.1 Q235.324 1454.1 233.495 1457.66 Q231.689 1461.2 231.689 1468.33 Q231.689 1475.44 233.495 1479.01 Q235.324 1482.55 238.935 1482.55 Q242.569 1482.55 244.374 1479.01 Q246.203 1475.44 246.203 1468.33 Q246.203 1461.2 244.374 1457.66 Q242.569 1454.1 238.935 1454.1 M238.935 1450.39 Q244.745 1450.39 247.8 1455 Q250.879 1459.58 250.879 1468.33 Q250.879 1477.06 247.8 1481.67 Q244.745 1486.25 238.935 1486.25 Q233.125 1486.25 230.046 1481.67 Q226.99 1477.06 226.99 1468.33 Q226.99 1459.58 230.046 1455 Q233.125 1450.39 238.935 1450.39 Z" fill="#000000" fill-rule="nonzero" fill-opacity="1" /><path clip-path="url(#clip900)" d="M706.759 1481.64 L723.078 1481.64 L723.078 1485.58 L701.134 1485.58 L701.134 1481.64 Q703.796 1478.89 708.379 1474.26 Q712.986 1469.61 714.166 1468.27 Q716.412 1465.74 717.291 1464.01 Q718.194 1462.25 718.194 1460.56 Q718.194 1457.8 716.25 1456.07 Q714.328 1454.33 711.227 1454.33 Q709.028 1454.33 706.574 1455.09 Q704.143 1455.86 701.366 1457.41 L701.366 1452.69 Q704.19 1451.55 706.643 1450.97 Q709.097 1450.39 711.134 1450.39 Q716.504 1450.39 719.699 1453.08 Q722.893 1455.77 722.893 1460.26 Q722.893 1462.39 722.083 1464.31 Q721.296 1466.2 719.19 1468.8 Q718.611 1469.47 715.509 1472.69 Q712.407 1475.88 706.759 1481.64 Z" fill="#000000" fill-rule="nonzero" fill-opacity="1" /><path clip-path="url(#clip900)" d="M732.893 1479.7 L737.777 1479.7 L737.777 1485.58 L732.893 1485.58 L732.893 1479.7 Z" fill="#000000" fill-rule="nonzero" fill-opacity="1" /><path clip-path="url(#clip900)" d="M748.009 1451.02 L766.365 1451.02 L766.365 1454.96 L752.291 1454.96 L752.291 1463.43 Q753.31 1463.08 754.328 1462.92 Q755.347 1462.73 756.365 1462.73 Q762.152 1462.73 765.532 1465.9 Q768.911 1469.08 768.911 1474.49 Q768.911 1480.07 765.439 1483.17 Q761.967 1486.25 755.648 1486.25 Q753.472 1486.25 751.203 1485.88 Q748.958 1485.51 746.55 1484.77 L746.55 1480.07 Q748.634 1481.2 750.856 1481.76 Q753.078 1482.32 755.555 1482.32 Q759.56 1482.32 761.898 1480.21 Q764.236 1478.1 764.236 1474.49 Q764.236 1470.88 761.898 1468.77 Q759.56 1466.67 755.555 1466.67 Q753.68 1466.67 751.805 1467.08 Q749.953 1467.5 748.009 1468.38 L748.009 1451.02 Z" fill="#000000" fill-rule="nonzero" fill-opacity="1" /><path clip-path="url(#clip900)" d="M1220.89 1451.02 L1239.25 1451.02 L1239.25 1454.96 L1225.17 1454.96 L1225.17 1463.43 Q1226.19 1463.08 1227.21 1462.92 Q1228.23 1462.73 1229.25 1462.73 Q1235.03 1462.73 1238.41 1465.9 Q1241.79 1469.08 1241.79 1474.49 Q1241.79 1480.07 1238.32 1483.17 Q1234.85 1486.25 1228.53 1486.25 Q1226.35 1486.25 1224.09 1485.88 Q1221.84 1485.51 1219.43 1484.77 L1219.43 1480.07 Q1221.52 1481.2 1223.74 1481.76 Q1225.96 1482.32 1228.44 1482.32 Q1232.44 1482.32 1234.78 1480.21 Q1237.12 1478.1 1237.12 1474.49 Q1237.12 1470.88 1234.78 1468.77 Q1232.44 1466.67 1228.44 1466.67 Q1226.56 1466.67 1224.69 1467.08 Q1222.84 1467.5 1220.89 1468.38 L1220.89 1451.02 Z" fill="#000000" fill-rule="nonzero" fill-opacity="1" /><path clip-path="url(#clip900)" d="M1251.01 1479.7 L1255.89 1479.7 L1255.89 1485.58 L1251.01 1485.58 L1251.01 1479.7 Z" fill="#000000" fill-rule="nonzero" fill-opacity="1" /><path clip-path="url(#clip900)" d="M1276.08 1454.1 Q1272.46 1454.1 1270.64 1457.66 Q1268.83 1461.2 1268.83 1468.33 Q1268.83 1475.44 1270.64 1479.01 Q1272.46 1482.55 1276.08 1482.55 Q1279.71 1482.55 1281.52 1479.01 Q1283.34 1475.44 1283.34 1468.33 Q1283.34 1461.2 1281.52 1457.66 Q1279.71 1454.1 1276.08 1454.1 M1276.08 1450.39 Q1281.89 1450.39 1284.94 1455 Q1288.02 1459.58 1288.02 1468.33 Q1288.02 1477.06 1284.94 1481.67 Q1281.89 1486.25 1276.08 1486.25 Q1270.27 1486.25 1267.19 1481.67 Q1264.13 1477.06 1264.13 1468.33 Q1264.13 1459.58 1267.19 1455 Q1270.27 1450.39 1276.08 1450.39 Z" fill="#000000" fill-rule="nonzero" fill-opacity="1" /><path clip-path="url(#clip900)" d="M1738.75 1451.02 L1760.97 1451.02 L1760.97 1453.01 L1748.43 1485.58 L1743.54 1485.58 L1755.35 1454.96 L1738.75 1454.96 L1738.75 1451.02 Z" fill="#000000" fill-rule="nonzero" fill-opacity="1" /><path clip-path="url(#clip900)" d="M1770.09 1479.7 L1774.98 1479.7 L1774.98 1485.58 L1770.09 1485.58 L1770.09 1479.7 Z" fill="#000000" fill-rule="nonzero" fill-opacity="1" /><path clip-path="url(#clip900)" d="M1785.21 1451.02 L1803.56 1451.02 L1803.56 1454.96 L1789.49 1454.96 L1789.49 1463.43 Q1790.51 1463.08 1791.53 1462.92 Q1792.55 1462.73 1793.56 1462.73 Q1799.35 1462.73 1802.73 1465.9 Q1806.11 1469.08 1806.11 1474.49 Q1806.11 1480.07 1802.64 1483.17 Q1799.17 1486.25 1792.85 1486.25 Q1790.67 1486.25 1788.4 1485.88 Q1786.16 1485.51 1783.75 1484.77 L1783.75 1480.07 Q1785.83 1481.2 1788.06 1481.76 Q1790.28 1482.32 1792.75 1482.32 Q1796.76 1482.32 1799.1 1480.21 Q1801.43 1478.1 1801.43 1474.49 Q1801.43 1470.88 1799.1 1468.77 Q1796.76 1466.67 1792.75 1466.67 Q1790.88 1466.67 1789 1467.08 Q1787.15 1467.5 1785.21 1468.38 L1785.21 1451.02 Z" fill="#000000" fill-rule="nonzero" fill-opacity="1" /><path clip-path="url(#clip900)" d="M2243.21 1481.64 L2250.84 1481.64 L2250.84 1455.28 L2242.53 1456.95 L2242.53 1452.69 L2250.8 1451.02 L2255.47 1451.02 L2255.47 1481.64 L2263.11 1481.64 L2263.11 1485.58 L2243.21 1485.58 L2243.21 1481.64 Z" fill="#000000" fill-rule="nonzero" fill-opacity="1" /><path clip-path="url(#clip900)" d="M2282.56 1454.1 Q2278.95 1454.1 2277.12 1457.66 Q2275.31 1461.2 2275.31 1468.33 Q2275.31 1475.44 2277.12 1479.01 Q2278.95 1482.55 2282.56 1482.55 Q2286.19 1482.55 2288 1479.01 Q2289.83 1475.44 2289.83 1468.33 Q2289.83 1461.2 2288 1457.66 Q2286.19 1454.1 2282.56 1454.1 M2282.56 1450.39 Q2288.37 1450.39 2291.42 1455 Q2294.5 1459.58 2294.5 1468.33 Q2294.5 1477.06 2291.42 1481.67 Q2288.37 1486.25 2282.56 1486.25 Q2276.75 1486.25 2273.67 1481.67 Q2270.61 1477.06 2270.61 1468.33 Q2270.61 1459.58 2273.67 1455 Q2276.75 1450.39 2282.56 1450.39 Z" fill="#000000" fill-rule="nonzero" fill-opacity="1" /><path clip-path="url(#clip900)" d="M2302.72 1479.7 L2307.6 1479.7 L2307.6 1485.58 L2302.72 1485.58 L2302.72 1479.7 Z" fill="#000000" fill-rule="nonzero" fill-opacity="1" /><path clip-path="url(#clip900)" d="M2327.79 1454.1 Q2324.18 1454.1 2322.35 1457.66 Q2320.54 1461.2 2320.54 1468.33 Q2320.54 1475.44 2322.35 1479.01 Q2324.18 1482.55 2327.79 1482.55 Q2331.42 1482.55 2333.23 1479.01 Q2335.06 1475.44 2335.06 1468.33 Q2335.06 1461.2 2333.23 1457.66 Q2331.42 1454.1 2327.79 1454.1 M2327.79 1450.39 Q2333.6 1450.39 2336.65 1455 Q2339.73 1459.58 2339.73 1468.33 Q2339.73 1477.06 2336.65 1481.67 Q2333.6 1486.25 2327.79 1486.25 Q2321.98 1486.25 2318.9 1481.67 Q2315.84 1477.06 2315.84 1468.33 Q2315.84 1459.58 2318.9 1455 Q2321.98 1450.39 2327.79 1450.39 Z" fill="#000000" fill-rule="nonzero" fill-opacity="1" /><path clip-path="url(#clip900)" d="M1280.72 1532.4 L1267.82 1549.74 L1281.38 1568.04 L1274.48 1568.04 L1264.1 1554.04 L1253.72 1568.04 L1246.82 1568.04 L1260.66 1549.39 L1248 1532.4 L1254.9 1532.4 L1264.36 1545.1 L1273.81 1532.4 L1280.72 1532.4 Z" fill="#000000" fill-rule="nonzero" fill-opacity="1" /><polyline clip-path="url(#clip900)" style="stroke:#000000; stroke-linecap:round; stroke-linejoin:round; stroke-width:4; stroke-opacity:1; fill:none" points="175.445,1423.18 175.445,123.472 "/>
<polyline clip-path="url(#clip900)" style="stroke:#000000; stroke-linecap:round; stroke-linejoin:round; stroke-width:4; stroke-opacity:1; fill:none" points="175.445,1311.23 194.343,1311.23 "/>
<polyline clip-path="url(#clip900)" style="stroke:#000000; stroke-linecap:round; stroke-linejoin:round; stroke-width:4; stroke-opacity:1; fill:none" points="175.445,1079.88 194.343,1079.88 "/>
<polyline clip-path="url(#clip900)" style="stroke:#000000; stroke-linecap:round; stroke-linejoin:round; stroke-width:4; stroke-opacity:1; fill:none" points="175.445,848.527 194.343,848.527 "/>
<polyline clip-path="url(#clip900)" style="stroke:#000000; stroke-linecap:round; stroke-linejoin:round; stroke-width:4; stroke-opacity:1; fill:none" points="175.445,617.177 194.343,617.177 "/>
<polyline clip-path="url(#clip900)" style="stroke:#000000; stroke-linecap:round; stroke-linejoin:round; stroke-width:4; stroke-opacity:1; fill:none" points="175.445,385.827 194.343,385.827 "/>
<polyline clip-path="url(#clip900)" style="stroke:#000000; stroke-linecap:round; stroke-linejoin:round; stroke-width:4; stroke-opacity:1; fill:none" points="175.445,154.477 194.343,154.477 "/>
<path clip-path="url(#clip900)" d="M127.501 1297.03 Q123.89 1297.03 122.061 1300.59 Q120.255 1304.13 120.255 1311.26 Q120.255 1318.37 122.061 1321.93 Q123.89 1325.47 127.501 1325.47 Q131.135 1325.47 132.941 1321.93 Q134.769 1318.37 134.769 1311.26 Q134.769 1304.13 132.941 1300.59 Q131.135 1297.03 127.501 1297.03 M127.501 1293.32 Q133.311 1293.32 136.367 1297.93 Q139.445 1302.51 139.445 1311.26 Q139.445 1319.99 136.367 1324.59 Q133.311 1329.18 127.501 1329.18 Q121.691 1329.18 118.612 1324.59 Q115.556 1319.99 115.556 1311.26 Q115.556 1302.51 118.612 1297.93 Q121.691 1293.32 127.501 1293.32 Z" fill="#000000" fill-rule="nonzero" fill-opacity="1" /><path clip-path="url(#clip900)" d="M119.538 1093.22 L127.177 1093.22 L127.177 1066.86 L118.867 1068.52 L118.867 1064.26 L127.13 1062.6 L131.806 1062.6 L131.806 1093.22 L139.445 1093.22 L139.445 1097.16 L119.538 1097.16 L119.538 1093.22 Z" fill="#000000" fill-rule="nonzero" fill-opacity="1" /><path clip-path="url(#clip900)" d="M123.126 861.872 L139.445 861.872 L139.445 865.807 L117.501 865.807 L117.501 861.872 Q120.163 859.117 124.746 854.488 Q129.353 849.835 130.533 848.492 Q132.779 845.969 133.658 844.233 Q134.561 842.474 134.561 840.784 Q134.561 838.029 132.617 836.293 Q130.695 834.557 127.593 834.557 Q125.394 834.557 122.941 835.321 Q120.51 836.085 117.732 837.636 L117.732 832.914 Q120.556 831.779 123.01 831.201 Q125.464 830.622 127.501 830.622 Q132.871 830.622 136.066 833.307 Q139.26 835.992 139.26 840.483 Q139.26 842.613 138.45 844.534 Q137.663 846.432 135.556 849.025 Q134.978 849.696 131.876 852.914 Q128.774 856.108 123.126 861.872 Z" fill="#000000" fill-rule="nonzero" fill-opacity="1" /><path clip-path="url(#clip900)" d="M132.316 615.823 Q135.672 616.541 137.547 618.809 Q139.445 621.078 139.445 624.411 Q139.445 629.527 135.927 632.328 Q132.408 635.128 125.927 635.128 Q123.751 635.128 121.436 634.689 Q119.144 634.272 116.691 633.416 L116.691 628.902 Q118.635 630.036 120.95 630.615 Q123.265 631.193 125.788 631.193 Q130.186 631.193 132.478 629.457 Q134.792 627.721 134.792 624.411 Q134.792 621.355 132.64 619.642 Q130.51 617.906 126.691 617.906 L122.663 617.906 L122.663 614.064 L126.876 614.064 Q130.325 614.064 132.154 612.698 Q133.982 611.309 133.982 608.717 Q133.982 606.055 132.084 604.643 Q130.209 603.207 126.691 603.207 Q124.769 603.207 122.57 603.624 Q120.371 604.041 117.732 604.92 L117.732 600.754 Q120.394 600.013 122.709 599.643 Q125.047 599.272 127.107 599.272 Q132.431 599.272 135.533 601.703 Q138.635 604.11 138.635 608.23 Q138.635 611.101 136.992 613.092 Q135.348 615.059 132.316 615.823 Z" fill="#000000" fill-rule="nonzero" fill-opacity="1" /><path clip-path="url(#clip900)" d="M129.862 372.621 L118.056 391.07 L129.862 391.07 L129.862 372.621 M128.635 368.547 L134.515 368.547 L134.515 391.07 L139.445 391.07 L139.445 394.959 L134.515 394.959 L134.515 403.107 L129.862 403.107 L129.862 394.959 L114.26 394.959 L114.26 390.445 L128.635 368.547 Z" fill="#000000" fill-rule="nonzero" fill-opacity="1" /><path clip-path="url(#clip900)" d="M118.543 137.197 L136.899 137.197 L136.899 141.133 L122.825 141.133 L122.825 149.605 Q123.843 149.257 124.862 149.095 Q125.88 148.91 126.899 148.91 Q132.686 148.91 136.066 152.082 Q139.445 155.253 139.445 160.669 Q139.445 166.248 135.973 169.35 Q132.501 172.429 126.181 172.429 Q124.005 172.429 121.737 172.058 Q119.492 171.688 117.084 170.947 L117.084 166.248 Q119.168 167.382 121.39 167.938 Q123.612 168.494 126.089 168.494 Q130.093 168.494 132.431 166.387 Q134.769 164.281 134.769 160.669 Q134.769 157.058 132.431 154.952 Q130.093 152.845 126.089 152.845 Q124.214 152.845 122.339 153.262 Q120.487 153.679 118.543 154.558 L118.543 137.197 Z" fill="#000000" fill-rule="nonzero" fill-opacity="1" /><path clip-path="url(#clip900)" d="M67.3143 771.639 Q73.68 774.122 75.6216 776.477 Q77.5631 778.832 77.5631 782.779 L77.5631 787.458 L72.6615 787.458 L72.6615 784.02 Q72.6615 781.601 71.5157 780.265 Q70.3699 778.928 66.1048 777.305 L63.4312 776.254 L28.3562 790.673 L28.3562 784.466 L56.238 773.326 L28.3562 762.186 L28.3562 755.979 L67.3143 771.639 Z" fill="#000000" fill-rule="nonzero" fill-opacity="1" /><path clip-path="url(#clip900)" d="M701.815 18.8205 L701.815 65.8515 L711.699 65.8515 Q724.216 65.8515 730.009 60.1802 Q735.842 54.509 735.842 42.2752 Q735.842 30.1225 730.009 24.4918 Q724.216 18.8205 711.699 18.8205 L701.815 18.8205 M693.632 12.096 L710.443 12.096 Q728.024 12.096 736.247 19.4281 Q744.471 26.7198 744.471 42.2752 Q744.471 57.9117 736.207 65.2439 Q727.943 72.576 710.443 72.576 L693.632 72.576 L693.632 12.096 Z" fill="#000000" fill-rule="nonzero" fill-opacity="1" /><path clip-path="url(#clip900)" d="M795.998 48.0275 L795.998 51.6733 L761.728 51.6733 Q762.214 59.3701 766.346 63.421 Q770.518 67.4314 777.931 67.4314 Q782.225 67.4314 786.236 66.3781 Q790.287 65.3249 794.256 63.2184 L794.256 70.267 Q790.246 71.9684 786.033 72.8596 Q781.82 73.7508 777.486 73.7508 Q766.629 73.7508 760.269 67.4314 Q753.95 61.1119 753.95 50.3365 Q753.95 39.1965 759.945 32.6746 Q765.981 26.1121 776.189 26.1121 Q785.344 26.1121 790.651 32.0264 Q795.998 37.9003 795.998 48.0275 M788.545 45.84 Q788.464 39.7232 785.101 36.0774 Q781.78 32.4315 776.27 32.4315 Q770.032 32.4315 766.265 35.9558 Q762.538 39.4801 761.971 45.8805 L788.545 45.84 Z" fill="#000000" fill-rule="nonzero" fill-opacity="1" /><path clip-path="url(#clip900)" d="M840.882 28.9478 L840.882 35.9153 Q837.723 34.1734 834.522 33.3227 Q831.363 32.4315 828.122 32.4315 Q820.871 32.4315 816.86 37.0496 Q812.85 41.6271 812.85 49.9314 Q812.85 58.2358 816.86 62.8538 Q820.871 67.4314 828.122 67.4314 Q831.363 67.4314 834.522 66.5807 Q837.723 65.6895 840.882 63.9476 L840.882 70.8341 Q837.763 72.2924 834.401 73.0216 Q831.079 73.7508 827.312 73.7508 Q817.063 73.7508 811.027 67.3098 Q804.991 60.8689 804.991 49.9314 Q804.991 38.832 811.068 32.472 Q817.185 26.1121 827.798 26.1121 Q831.241 26.1121 834.522 26.8413 Q837.804 27.5299 840.882 28.9478 Z" fill="#000000" fill-rule="nonzero" fill-opacity="1" /><path clip-path="url(#clip900)" d="M874.464 49.7694 Q865.431 49.7694 861.947 51.8354 Q858.463 53.9013 858.463 58.8839 Q858.463 62.8538 861.056 65.2034 Q863.689 67.5124 868.185 67.5124 Q874.383 67.5124 878.11 63.1374 Q881.877 58.7219 881.877 51.4303 L881.877 49.7694 L874.464 49.7694 M889.331 46.6907 L889.331 72.576 L881.877 72.576 L881.877 65.6895 Q879.325 69.8214 875.518 71.8063 Q871.71 73.7508 866.2 73.7508 Q859.233 73.7508 855.101 69.8619 Q851.01 65.9325 851.01 59.3701 Q851.01 51.7138 856.114 47.825 Q861.258 43.9361 871.426 43.9361 L881.877 43.9361 L881.877 43.2069 Q881.877 38.0623 878.475 35.2672 Q875.112 32.4315 868.996 32.4315 Q865.107 32.4315 861.42 33.3632 Q857.734 34.295 854.331 36.1584 L854.331 29.2718 Q858.423 27.692 862.271 26.9223 Q866.119 26.1121 869.765 26.1121 Q879.609 26.1121 884.47 31.2163 Q889.331 36.3204 889.331 46.6907 Z" fill="#000000" fill-rule="nonzero" fill-opacity="1" /><path clip-path="url(#clip900)" d="M923.561 76.7889 Q920.402 84.8907 917.404 87.3618 Q914.406 89.8329 909.383 89.8329 L903.428 89.8329 L903.428 83.5945 L907.803 83.5945 Q910.882 83.5945 912.583 82.1361 Q914.285 80.6778 916.351 75.2496 L917.687 71.8468 L899.337 27.2059 L907.236 27.2059 L921.414 62.6918 L935.592 27.2059 L943.492 27.2059 L923.561 76.7889 Z" fill="#000000" fill-rule="nonzero" fill-opacity="1" /><path clip-path="url(#clip900)" d="M953.781 27.2059 L961.235 27.2059 L961.235 72.576 L953.781 72.576 L953.781 27.2059 M953.781 9.54393 L961.235 9.54393 L961.235 18.9825 L953.781 18.9825 L953.781 9.54393 Z" fill="#000000" fill-rule="nonzero" fill-opacity="1" /><path clip-path="url(#clip900)" d="M1014.54 45.1919 L1014.54 72.576 L1007.09 72.576 L1007.09 45.4349 Q1007.09 38.994 1004.58 35.7938 Q1002.07 32.5936 997.045 32.5936 Q991.009 32.5936 987.525 36.4419 Q984.041 40.2903 984.041 46.9338 L984.041 72.576 L976.547 72.576 L976.547 27.2059 L984.041 27.2059 L984.041 34.2544 Q986.715 30.163 990.32 28.1376 Q993.966 26.1121 998.706 26.1121 Q1006.52 26.1121 1010.53 30.9732 Q1014.54 35.7938 1014.54 45.1919 Z" fill="#000000" fill-rule="nonzero" fill-opacity="1" /><path clip-path="url(#clip900)" d="M1059.27 49.3643 Q1059.27 41.2625 1055.9 36.8065 Q1052.58 32.3505 1046.55 32.3505 Q1040.55 32.3505 1037.19 36.8065 Q1033.87 41.2625 1033.87 49.3643 Q1033.87 57.4256 1037.19 61.8816 Q1040.55 66.3376 1046.55 66.3376 Q1052.58 66.3376 1055.9 61.8816 Q1059.27 57.4256 1059.27 49.3643 M1066.72 66.9452 Q1066.72 78.5308 1061.58 84.1616 Q1056.43 89.8329 1045.82 89.8329 Q1041.89 89.8329 1038.4 89.2252 Q1034.92 88.6581 1031.64 87.4428 L1031.64 80.1917 Q1034.92 81.9741 1038.12 82.8248 Q1041.32 83.6755 1044.64 83.6755 Q1051.97 83.6755 1055.62 79.8271 Q1059.27 76.0193 1059.27 68.282 L1059.27 64.5957 Q1056.96 68.6061 1053.35 70.5911 Q1049.75 72.576 1044.72 72.576 Q1036.38 72.576 1031.27 66.2161 Q1026.17 59.8562 1026.17 49.3643 Q1026.17 38.832 1031.27 32.472 Q1036.38 26.1121 1044.72 26.1121 Q1049.75 26.1121 1053.35 28.0971 Q1056.96 30.082 1059.27 34.0924 L1059.27 27.2059 L1066.72 27.2059 L1066.72 66.9452 Z" fill="#000000" fill-rule="nonzero" fill-opacity="1" /><path clip-path="url(#clip900)" d="M1133.32 17.6457 Q1124.41 17.6457 1119.14 24.2892 Q1113.91 30.9327 1113.91 42.3968 Q1113.91 53.8203 1119.14 60.4638 Q1124.41 67.1073 1133.32 67.1073 Q1142.23 67.1073 1147.41 60.4638 Q1152.64 53.8203 1152.64 42.3968 Q1152.64 30.9327 1147.41 24.2892 Q1142.23 17.6457 1133.32 17.6457 M1133.32 11.0023 Q1146.04 11.0023 1153.65 19.5497 Q1161.27 28.0566 1161.27 42.3968 Q1161.27 56.6965 1153.65 65.2439 Q1146.04 73.7508 1133.32 73.7508 Q1120.56 73.7508 1112.9 65.2439 Q1105.28 56.737 1105.28 42.3968 Q1105.28 28.0566 1112.9 19.5497 Q1120.56 11.0023 1133.32 11.0023 Z" fill="#000000" fill-rule="nonzero" fill-opacity="1" /><path clip-path="url(#clip900)" d="M1202.67 28.5427 L1202.67 35.5912 Q1199.51 33.9709 1196.11 33.1607 Q1192.7 32.3505 1189.06 32.3505 Q1183.51 32.3505 1180.71 34.0519 Q1177.96 35.7533 1177.96 39.156 Q1177.96 41.7486 1179.94 43.2475 Q1181.93 44.7058 1187.92 46.0426 L1190.48 46.6097 Q1198.42 48.3111 1201.74 51.4303 Q1205.1 54.509 1205.1 60.0587 Q1205.1 66.3781 1200.08 70.0644 Q1195.09 73.7508 1186.34 73.7508 Q1182.7 73.7508 1178.73 73.0216 Q1174.8 72.3329 1170.42 70.9151 L1170.42 63.2184 Q1174.56 65.3654 1178.57 66.4591 Q1182.58 67.5124 1186.51 67.5124 Q1191.77 67.5124 1194.61 65.73 Q1197.44 63.9071 1197.44 60.6258 Q1197.44 57.5877 1195.38 55.9673 Q1193.35 54.3469 1186.42 52.8481 L1183.83 52.2405 Q1176.9 50.7821 1173.83 47.7845 Q1170.75 44.7463 1170.75 39.4801 Q1170.75 33.0797 1175.28 29.5959 Q1179.82 26.1121 1188.17 26.1121 Q1192.3 26.1121 1195.94 26.7198 Q1199.59 27.3274 1202.67 28.5427 Z" fill="#000000" fill-rule="nonzero" fill-opacity="1" /><path clip-path="url(#clip900)" d="M1249.62 28.9478 L1249.62 35.9153 Q1246.46 34.1734 1243.26 33.3227 Q1240.1 32.4315 1236.86 32.4315 Q1229.61 32.4315 1225.6 37.0496 Q1221.59 41.6271 1221.59 49.9314 Q1221.59 58.2358 1225.6 62.8538 Q1229.61 67.4314 1236.86 67.4314 Q1240.1 67.4314 1243.26 66.5807 Q1246.46 65.6895 1249.62 63.9476 L1249.62 70.8341 Q1246.5 72.2924 1243.14 73.0216 Q1239.82 73.7508 1236.05 73.7508 Q1225.8 73.7508 1219.76 67.3098 Q1213.73 60.8689 1213.73 49.9314 Q1213.73 38.832 1219.8 32.472 Q1225.92 26.1121 1236.53 26.1121 Q1239.98 26.1121 1243.26 26.8413 Q1246.54 27.5299 1249.62 28.9478 Z" fill="#000000" fill-rule="nonzero" fill-opacity="1" /><path clip-path="url(#clip900)" d="M1262.58 27.2059 L1270.04 27.2059 L1270.04 72.576 L1262.58 72.576 L1262.58 27.2059 M1262.58 9.54393 L1270.04 9.54393 L1270.04 18.9825 L1262.58 18.9825 L1262.58 9.54393 Z" fill="#000000" fill-rule="nonzero" fill-opacity="1" /><path clip-path="url(#clip900)" d="M1285.63 9.54393 L1293.08 9.54393 L1293.08 72.576 L1285.63 72.576 L1285.63 9.54393 Z" fill="#000000" fill-rule="nonzero" fill-opacity="1" /><path clip-path="url(#clip900)" d="M1308.68 9.54393 L1316.13 9.54393 L1316.13 72.576 L1308.68 72.576 L1308.68 9.54393 Z" fill="#000000" fill-rule="nonzero" fill-opacity="1" /><path clip-path="url(#clip900)" d="M1352.35 49.7694 Q1343.32 49.7694 1339.83 51.8354 Q1336.35 53.9013 1336.35 58.8839 Q1336.35 62.8538 1338.94 65.2034 Q1341.57 67.5124 1346.07 67.5124 Q1352.27 67.5124 1356 63.1374 Q1359.76 58.7219 1359.76 51.4303 L1359.76 49.7694 L1352.35 49.7694 M1367.22 46.6907 L1367.22 72.576 L1359.76 72.576 L1359.76 65.6895 Q1357.21 69.8214 1353.4 71.8063 Q1349.59 73.7508 1344.09 73.7508 Q1337.12 73.7508 1332.99 69.8619 Q1328.89 65.9325 1328.89 59.3701 Q1328.89 51.7138 1334 47.825 Q1339.14 43.9361 1349.31 43.9361 L1359.76 43.9361 L1359.76 43.2069 Q1359.76 38.0623 1356.36 35.2672 Q1353 32.4315 1346.88 32.4315 Q1342.99 32.4315 1339.31 33.3632 Q1335.62 34.295 1332.22 36.1584 L1332.22 29.2718 Q1336.31 27.692 1340.16 26.9223 Q1344 26.1121 1347.65 26.1121 Q1357.49 26.1121 1362.36 31.2163 Q1367.22 36.3204 1367.22 46.6907 Z" fill="#000000" fill-rule="nonzero" fill-opacity="1" /><path clip-path="url(#clip900)" d="M1389.94 14.324 L1389.94 27.2059 L1405.29 27.2059 L1405.29 32.9987 L1389.94 32.9987 L1389.94 57.6282 Q1389.94 63.1779 1391.44 64.7578 Q1392.98 66.3376 1397.64 66.3376 L1405.29 66.3376 L1405.29 72.576 L1397.64 72.576 Q1389.01 72.576 1385.73 69.3758 Q1382.45 66.1351 1382.45 57.6282 L1382.45 32.9987 L1376.98 32.9987 L1376.98 27.2059 L1382.45 27.2059 L1382.45 14.324 L1389.94 14.324 Z" fill="#000000" fill-rule="nonzero" fill-opacity="1" /><path clip-path="url(#clip900)" d="M1415.1 27.2059 L1422.55 27.2059 L1422.55 72.576 L1415.1 72.576 L1415.1 27.2059 M1415.1 9.54393 L1422.55 9.54393 L1422.55 18.9825 L1415.1 18.9825 L1415.1 9.54393 Z" fill="#000000" fill-rule="nonzero" fill-opacity="1" /><path clip-path="url(#clip900)" d="M1455.73 32.4315 Q1449.73 32.4315 1446.25 37.1306 Q1442.77 41.7891 1442.77 49.9314 Q1442.77 58.0738 1446.21 62.7728 Q1449.69 67.4314 1455.73 67.4314 Q1461.68 67.4314 1465.17 62.7323 Q1468.65 58.0333 1468.65 49.9314 Q1468.65 41.8701 1465.17 37.1711 Q1461.68 32.4315 1455.73 32.4315 M1455.73 26.1121 Q1465.45 26.1121 1471 32.4315 Q1476.55 38.7509 1476.55 49.9314 Q1476.55 61.0714 1471 67.4314 Q1465.45 73.7508 1455.73 73.7508 Q1445.97 73.7508 1440.42 67.4314 Q1434.91 61.0714 1434.91 49.9314 Q1434.91 38.7509 1440.42 32.4315 Q1445.97 26.1121 1455.73 26.1121 Z" fill="#000000" fill-rule="nonzero" fill-opacity="1" /><path clip-path="url(#clip900)" d="M1526.62 45.1919 L1526.62 72.576 L1519.17 72.576 L1519.17 45.4349 Q1519.17 38.994 1516.65 35.7938 Q1514.14 32.5936 1509.12 32.5936 Q1503.08 32.5936 1499.6 36.4419 Q1496.12 40.2903 1496.12 46.9338 L1496.12 72.576 L1488.62 72.576 L1488.62 27.2059 L1496.12 27.2059 L1496.12 34.2544 Q1498.79 30.163 1502.39 28.1376 Q1506.04 26.1121 1510.78 26.1121 Q1518.6 26.1121 1522.61 30.9732 Q1526.62 35.7938 1526.62 45.1919 Z" fill="#000000" fill-rule="nonzero" fill-opacity="1" /><path clip-path="url(#clip900)" d="M1570.41 28.5427 L1570.41 35.5912 Q1567.25 33.9709 1563.85 33.1607 Q1560.44 32.3505 1556.8 32.3505 Q1551.25 32.3505 1548.45 34.0519 Q1545.7 35.7533 1545.7 39.156 Q1545.7 41.7486 1547.68 43.2475 Q1549.67 44.7058 1555.66 46.0426 L1558.22 46.6097 Q1566.16 48.3111 1569.48 51.4303 Q1572.84 54.509 1572.84 60.0587 Q1572.84 66.3781 1567.82 70.0644 Q1562.83 73.7508 1554.08 73.7508 Q1550.44 73.7508 1546.47 73.0216 Q1542.54 72.3329 1538.16 70.9151 L1538.16 63.2184 Q1542.3 65.3654 1546.31 66.4591 Q1550.32 67.5124 1554.25 67.5124 Q1559.51 67.5124 1562.35 65.73 Q1565.18 63.9071 1565.18 60.6258 Q1565.18 57.5877 1563.12 55.9673 Q1561.09 54.3469 1554.17 52.8481 L1551.57 52.2405 Q1544.65 50.7821 1541.57 47.7845 Q1538.49 44.7463 1538.49 39.4801 Q1538.49 33.0797 1543.03 29.5959 Q1547.56 26.1121 1555.91 26.1121 Q1560.04 26.1121 1563.69 26.7198 Q1567.33 27.3274 1570.41 28.5427 Z" fill="#000000" fill-rule="nonzero" fill-opacity="1" /><path clip-path="url(#clip900)" d="M1628.99 9.62495 Q1623.56 18.942 1620.92 28.0566 Q1618.29 37.1711 1618.29 46.5287 Q1618.29 55.8863 1620.92 65.0818 Q1623.6 74.2369 1628.99 83.5134 L1622.5 83.5134 Q1616.43 73.9938 1613.39 64.7983 Q1610.39 55.6027 1610.39 46.5287 Q1610.39 37.4952 1613.39 28.3401 Q1616.39 19.1851 1622.5 9.62495 L1628.99 9.62495 Z" fill="#000000" fill-rule="nonzero" fill-opacity="1" /><path clip-path="url(#clip900)" d="M1680.03 14.0809 L1680.03 22.0612 Q1675.37 19.8332 1671.24 18.7395 Q1667.1 17.6457 1663.26 17.6457 Q1656.57 17.6457 1652.93 20.2383 Q1649.32 22.8309 1649.32 27.611 Q1649.32 31.6214 1651.71 33.6873 Q1654.14 35.7128 1660.87 36.9686 L1665.81 37.9813 Q1674.96 39.7232 1679.3 44.1387 Q1683.67 48.5136 1683.67 55.8863 Q1683.67 64.6767 1677.76 69.2137 Q1671.88 73.7508 1660.5 73.7508 Q1656.21 73.7508 1651.35 72.7785 Q1646.53 71.8063 1641.34 69.9024 L1641.34 61.4765 Q1646.32 64.2716 1651.1 65.6895 Q1655.88 67.1073 1660.5 67.1073 Q1667.51 67.1073 1671.32 64.3527 Q1675.13 61.598 1675.13 56.4939 Q1675.13 52.0379 1672.37 49.5264 Q1669.66 47.0148 1663.42 45.759 L1658.44 44.7868 Q1649.28 42.9639 1645.19 39.075 Q1641.1 35.1862 1641.1 28.2591 Q1641.1 20.2383 1646.73 15.6203 Q1652.4 11.0023 1662.32 11.0023 Q1666.58 11.0023 1670.99 11.7719 Q1675.41 12.5416 1680.03 14.0809 Z" fill="#000000" fill-rule="nonzero" fill-opacity="1" /><path clip-path="url(#clip900)" d="M1712.03 72.576 L1688.94 12.096 L1697.49 12.096 L1716.65 63.0159 L1735.85 12.096 L1744.36 12.096 L1721.31 72.576 L1712.03 72.576 Z" fill="#000000" fill-rule="nonzero" fill-opacity="1" /><path clip-path="url(#clip900)" d="M1794.42 63.9476 L1794.42 47.7034 L1781.06 47.7034 L1781.06 40.9789 L1802.53 40.9789 L1802.53 66.9452 Q1797.79 70.3075 1792.08 72.0494 Q1786.36 73.7508 1779.88 73.7508 Q1765.7 73.7508 1757.68 65.4869 Q1749.7 57.1826 1749.7 42.3968 Q1749.7 27.5705 1757.68 19.3066 Q1765.7 11.0023 1779.88 11.0023 Q1785.8 11.0023 1791.1 12.4606 Q1796.45 13.9189 1800.95 16.7545 L1800.95 25.464 Q1796.41 21.6156 1791.31 19.6712 Q1786.2 17.7268 1780.57 17.7268 Q1769.47 17.7268 1763.88 23.9246 Q1758.33 30.1225 1758.33 42.3968 Q1758.33 54.6305 1763.88 60.8284 Q1769.47 67.0263 1780.57 67.0263 Q1784.91 67.0263 1788.31 66.2971 Q1791.71 65.5274 1794.42 63.9476 Z" fill="#000000" fill-rule="nonzero" fill-opacity="1" /><path clip-path="url(#clip900)" d="M1815.98 9.62495 L1822.46 9.62495 Q1828.53 19.1851 1831.53 28.3401 Q1834.57 37.4952 1834.57 46.5287 Q1834.57 55.6027 1831.53 64.7983 Q1828.53 73.9938 1822.46 83.5134 L1815.98 83.5134 Q1821.36 74.2369 1824 65.0818 Q1826.67 55.8863 1826.67 46.5287 Q1826.67 37.1711 1824 28.0566 Q1821.36 18.942 1815.98 9.62495 Z" fill="#000000" fill-rule="nonzero" fill-opacity="1" /><polyline clip-path="url(#clip902)" style="stroke:#009af9; stroke-linecap:round; stroke-linejoin:round; stroke-width:4; stroke-opacity:1; fill:none" points="237.067,1195.74 241.184,1185.41 245.3,1176.84 249.416,1169.62 253.533,1163.49 257.649,1158.22 261.765,1153.66 265.882,1149.69 269.998,1146.23 274.115,1143.18 278.231,1140.51 282.347,1138.15 286.464,1136.07 290.58,1134.24 294.696,1132.62 298.813,1131.2 302.929,1129.96 307.045,1128.88 311.162,1127.95 315.278,1127.14 319.395,1126.47 323.511,1125.9 327.627,1125.45 331.744,1125.09 335.86,1124.82 339.976,1124.64 344.093,1124.54 348.209,1124.52 352.325,1124.57 356.442,1124.69 360.558,1124.87 364.675,1125.12 368.791,1125.43 372.907,1125.79 377.024,1126.21 381.14,1126.68 385.256,1127.21 389.373,1127.78 393.489,1128.4 397.605,1129.06 401.722,1129.77 405.838,1130.52 409.955,1131.31 414.071,1132.14 418.187,1133.01 422.304,1133.91 426.42,1134.85 430.536,1135.83 434.653,1136.84 438.769,1137.89 442.886,1138.97 447.002,1140.07 451.118,1141.21 455.235,1142.38 459.351,1143.58 463.467,1144.81 467.584,1146.06 471.7,1147.34 475.816,1148.65 479.933,1149.98 484.049,1151.33 488.166,1152.71 492.282,1154.12 496.398,1155.54 500.515,1156.99 504.631,1158.46 508.747,1159.95 512.864,1161.46 516.98,1162.99 521.096,1164.53 525.213,1166.1 529.329,1167.69 533.446,1169.29 537.562,1170.91 541.678,1172.54 545.795,1174.19 549.911,1175.85 554.027,1177.53 558.144,1179.23 562.26,1180.93 566.376,1182.65 570.493,1184.38 574.609,1186.13 578.726,1187.88 582.842,1189.65 586.958,1191.42 591.075,1193.21 595.191,1195 599.307,1196.81 603.424,1198.62 607.54,1200.44 611.657,1202.26 615.773,1204.1 619.889,1205.93 624.006,1207.78 628.122,1209.63 632.238,1211.48 636.355,1213.34 640.471,1215.21 644.587,1217.07 648.704,1218.94 652.82,1220.81 656.937,1222.68 661.053,1224.56 665.169,1226.43 669.286,1228.31 673.402,1230.19 677.518,1232.06 681.635,1233.94 685.751,1235.81 689.867,1237.68 693.984,1239.55 698.1,1241.42 702.217,1243.28 706.333,1245.14 710.449,1247 714.566,1248.85 718.682,1250.7 722.798,1252.54 726.915,1254.38 731.031,1256.21 735.148,1258.03 739.264,1259.85 743.38,1261.66 747.497,1263.46 751.613,1265.25 755.729,1267.04 759.846,1268.81 763.962,1270.58 768.078,1272.34 772.195,1274.09 776.311,1275.83 780.428,1277.55 784.544,1279.27 788.66,1280.98 792.777,1282.67 796.893,1284.35 801.009,1286.02 805.126,1287.68 809.242,1289.32 813.358,1290.95 817.475,1292.57 821.591,1294.17 825.708,1295.76 829.824,1297.33 833.94,1298.89 838.057,1300.43 842.173,1301.96 846.289,1303.47 850.406,1304.97 854.522,1306.45 858.638,1307.91 862.755,1309.36 866.871,1310.79 870.988,1312.2 875.104,1313.6 879.22,1314.97 883.337,1316.33 887.453,1317.67 891.569,1319 895.686,1320.3 899.802,1321.59 903.919,1322.85 908.035,1324.1 912.151,1325.33 916.268,1326.54 920.384,1327.73 924.5,1328.9 928.617,1330.04 932.733,1331.17 936.849,1332.28 940.966,1333.37 945.082,1334.44 949.199,1335.48 953.315,1336.51 957.431,1337.51 961.548,1338.5 965.664,1339.46 969.78,1340.4 973.897,1341.32 978.013,1342.22 982.129,1343.09 986.246,1343.95 990.362,1344.78 994.479,1345.59 998.595,1346.38 1002.71,1347.15 1006.83,1347.9 1010.94,1348.62 1015.06,1349.32 1019.18,1350 1023.29,1350.66 1027.41,1351.3 1031.53,1351.91 1035.64,1352.51 1039.76,1353.08 1043.87,1353.62 1047.99,1354.15 1052.11,1354.66 1056.22,1355.14 1060.34,1355.6 1064.46,1356.04 1068.57,1356.46 1072.69,1356.85 1076.81,1357.23 1080.92,1357.58 1085.04,1357.91 1089.15,1358.22 1093.27,1358.51 1097.39,1358.78 1101.5,1359.03 1105.62,1359.25 1109.74,1359.46 1113.85,1359.64 1117.97,1359.81 1122.09,1359.95 1126.2,1360.07 1130.32,1360.17 1134.44,1360.26 1138.55,1360.32 1142.67,1360.36 1146.78,1360.39 1150.9,1360.39 1155.02,1360.37 1159.13,1360.34 1163.25,1360.29 1167.37,1360.21 1171.48,1360.12 1175.6,1360.01 1179.72,1359.88 1183.83,1359.74 1187.95,1359.58 1192.06,1359.39 1196.18,1359.2 1200.3,1358.98 1204.41,1358.75 1208.53,1358.5 1212.65,1358.23 1216.76,1357.95 1220.88,1357.65 1225,1357.34 1229.11,1357.01 1233.23,1356.66 1237.34,1356.3 1241.46,1355.93 1245.58,1355.54 1249.69,1355.14 1253.81,1354.72 1257.93,1354.29 1262.04,1353.84 1266.16,1353.38 1270.28,1352.91 1274.39,1352.43 1278.51,1351.93 1282.62,1351.42 1286.74,1350.9 1290.86,1350.37 1294.97,1349.82 1299.09,1349.27 1303.21,1348.7 1307.32,1348.13 1311.44,1347.54 1315.56,1346.94 1319.67,1346.34 1323.79,1345.72 1327.9,1345.1 1332.02,1344.47 1336.14,1343.82 1340.25,1343.17 1344.37,1342.52 1348.49,1341.85 1352.6,1341.18 1356.72,1340.5 1360.84,1339.81 1364.95,1339.12 1369.07,1338.42 1373.18,1337.72 1377.3,1337.01 1381.42,1336.29 1385.53,1335.57 1389.65,1334.85 1393.77,1334.12 1397.88,1333.39 1402,1332.65 1406.12,1331.91 1410.23,1331.17 1414.35,1330.42 1418.46,1329.67 1422.58,1328.92 1426.7,1328.17 1430.81,1327.41 1434.93,1326.66 1439.05,1325.9 1443.16,1325.15 1447.28,1324.39 1451.4,1323.63 1455.51,1322.87 1459.63,1322.11 1463.74,1321.36 1467.86,1320.6 1471.98,1319.85 1476.09,1319.09 1480.21,1318.34 1484.33,1317.59 1488.44,1316.85 1492.56,1316.1 1496.68,1315.36 1500.79,1314.62 1504.91,1313.88 1509.02,1313.15 1513.14,1312.42 1517.26,1311.7 1521.37,1310.98 1525.49,1310.27 1529.61,1309.56 1533.72,1308.85 1537.84,1308.15 1541.96,1307.46 1546.07,1306.77 1550.19,1306.08 1554.3,1305.41 1558.42,1304.74 1562.54,1304.07 1566.65,1303.41 1570.77,1302.76 1574.89,1302.12 1579,1301.49 1583.12,1300.86 1587.24,1300.24 1591.35,1299.63 1595.47,1299.02 1599.58,1298.43 1603.7,1297.84 1607.82,1297.26 1611.93,1296.69 1616.05,1296.13 1620.17,1295.58 1624.28,1295.04 1628.4,1294.5 1632.52,1293.98 1636.63,1293.47 1640.75,1292.96 1644.86,1292.47 1648.98,1291.99 1653.1,1291.52 1657.21,1291.05 1661.33,1290.6 1665.45,1290.16 1669.56,1289.73 1673.68,1289.31 1677.8,1288.9 1681.91,1288.5 1686.03,1288.12 1690.14,1287.74 1694.26,1287.38 1698.38,1287.02 1702.49,1286.68 1706.61,1286.35 1710.73,1286.03 1714.84,1285.73 1718.96,1285.43 1723.08,1285.15 1727.19,1284.88 1731.31,1284.62 1735.42,1284.37 1739.54,1284.13 1743.66,1283.91 1747.77,1283.7 1751.89,1283.49 1756.01,1283.31 1760.12,1283.13 1764.24,1282.97 1768.36,1282.81 1772.47,1282.67 1776.59,1282.54 1780.7,1282.43 1784.82,1282.32 1788.94,1282.23 1793.05,1282.15 1797.17,1282.08 1801.29,1282.02 1805.4,1281.98 1809.52,1281.94 1813.64,1281.92 1817.75,1281.91 1821.87,1281.91 1825.98,1281.92 1830.1,1281.94 1834.22,1281.98 1838.33,1282.03 1842.45,1282.08 1846.57,1282.15 1850.68,1282.23 1854.8,1282.32 1858.92,1282.43 1863.03,1282.54 1867.15,1282.66 1871.26,1282.8 1875.38,1282.94 1879.5,1283.1 1883.61,1283.26 1887.73,1283.44 1891.85,1283.62 1895.96,1283.82 1900.08,1284.02 1904.2,1284.24 1908.31,1284.46 1912.43,1284.69 1916.54,1284.94 1920.66,1285.19 1924.78,1285.45 1928.89,1285.72 1933.01,1286 1937.13,1286.29 1941.24,1286.58 1945.36,1286.89 1949.48,1287.2 1953.59,1287.52 1957.71,1287.85 1961.82,1288.18 1965.94,1288.53 1970.06,1288.88 1974.17,1289.24 1978.29,1289.6 1982.41,1289.97 1986.52,1290.35 1990.64,1290.74 1994.76,1291.13 1998.87,1291.52 2002.99,1291.93 2007.1,1292.34 2011.22,1292.75 2015.34,1293.17 2019.45,1293.59 2023.57,1294.02 2027.69,1294.46 2031.8,1294.9 2035.92,1295.34 2040.04,1295.79 2044.15,1296.24 2048.27,1296.7 2052.38,1297.16 2056.5,1297.62 2060.62,1298.09 2064.73,1298.56 2068.85,1299.03 2072.97,1299.5 2077.08,1299.98 2081.2,1300.46 2085.32,1300.94 2089.43,1301.43 2093.55,1301.91 2097.66,1302.4 2101.78,1302.89 2105.9,1303.38 2110.01,1303.87 2114.13,1304.36 2118.25,1304.86 2122.36,1305.35 2126.48,1305.84 2130.6,1306.33 2134.71,1306.83 2138.83,1307.32 2142.94,1307.81 2147.06,1308.3 2151.18,1308.79 2155.29,1309.28 2159.41,1309.77 2163.53,1310.26 2167.64,1310.74 2171.76,1311.22 2175.88,1311.7 2179.99,1312.18 2184.11,1312.66 2188.22,1313.13 2192.34,1313.6 2196.46,1314.07 2200.57,1314.54 2204.69,1315 2208.81,1315.46 2212.92,1315.91 2217.04,1316.36 2221.16,1316.81 2225.27,1317.26 2229.39,1317.7 2233.5,1318.13 2237.62,1318.56 2241.74,1318.99 2245.85,1319.41 2249.97,1319.82 2254.09,1320.24 2258.2,1320.64 2262.32,1321.04 2266.44,1321.44 2270.55,1321.83 2274.67,1322.21 2278.78,1322.59 2282.9,1322.96 2287.02,1323.33 2291.13,1323.69 "/>
<polyline clip-path="url(#clip902)" style="stroke:#e26f46; stroke-linecap:round; stroke-linejoin:round; stroke-width:4; stroke-opacity:1; fill:none" points="237.067,160.256 241.184,266.417 245.3,355.38 249.416,431.089 253.533,496.365 257.649,553.285 261.765,603.405 265.882,647.918 269.998,687.755 274.115,723.648 278.231,756.186 282.347,785.846 286.464,813.016 290.58,838.02 294.696,861.125 298.813,882.558 302.929,902.51 307.045,921.143 311.162,938.597 315.278,954.993 319.395,970.434 323.511,985.011 327.627,998.803 331.744,1011.88 335.86,1024.31 339.976,1036.13 344.093,1047.41 348.209,1058.18 352.325,1068.48 356.442,1078.34 360.558,1087.81 364.675,1096.9 368.791,1105.63 372.907,1114.05 377.024,1122.15 381.14,1129.97 385.256,1137.52 389.373,1144.82 393.489,1151.88 397.605,1158.71 401.722,1165.32 405.838,1171.74 409.955,1177.96 414.071,1184 418.187,1189.86 422.304,1195.56 426.42,1201.1 430.536,1206.49 434.653,1211.73 438.769,1216.83 442.886,1221.81 447.002,1226.65 451.118,1231.37 455.235,1235.97 459.351,1240.45 463.467,1244.83 467.584,1249.1 471.7,1253.27 475.816,1257.33 479.933,1261.3 484.049,1265.18 488.166,1268.96 492.282,1272.66 496.398,1276.27 500.515,1279.79 504.631,1283.24 508.747,1286.6 512.864,1289.89 516.98,1293.1 521.096,1296.23 525.213,1299.3 529.329,1302.29 533.446,1305.21 537.562,1308.07 541.678,1310.86 545.795,1313.58 549.911,1316.24 554.027,1318.84 558.144,1321.37 562.26,1323.84 566.376,1326.26 570.493,1328.61 574.609,1330.91 578.726,1333.15 582.842,1335.33 586.958,1337.46 591.075,1339.54 595.191,1341.56 599.307,1343.52 603.424,1345.44 607.54,1347.3 611.657,1349.11 615.773,1350.87 619.889,1352.59 624.006,1354.25 628.122,1355.87 632.238,1357.43 636.355,1358.95 640.471,1360.42 644.587,1361.85 648.704,1363.23 652.82,1364.57 656.937,1365.86 661.053,1367.11 665.169,1368.31 669.286,1369.47 673.402,1370.59 677.518,1371.66 681.635,1372.7 685.751,1373.69 689.867,1374.64 693.984,1375.55 698.1,1376.42 702.217,1377.25 706.333,1378.05 710.449,1378.8 714.566,1379.51 718.682,1380.19 722.798,1380.83 726.915,1381.43 731.031,1382 735.148,1382.53 739.264,1383.02 743.38,1383.48 747.497,1383.9 751.613,1384.29 755.729,1384.65 759.846,1384.97 763.962,1385.25 768.078,1385.51 772.195,1385.73 776.311,1385.92 780.428,1386.07 784.544,1386.2 788.66,1386.29 792.777,1386.36 796.893,1386.39 801.009,1386.4 805.126,1386.37 809.242,1386.32 813.358,1386.23 817.475,1386.12 821.591,1385.98 825.708,1385.81 829.824,1385.62 833.94,1385.4 838.057,1385.15 842.173,1384.88 846.289,1384.58 850.406,1384.26 854.522,1383.91 858.638,1383.54 862.755,1383.15 866.871,1382.73 870.988,1382.29 875.104,1381.83 879.22,1381.34 883.337,1380.83 887.453,1380.3 891.569,1379.75 895.686,1379.18 899.802,1378.6 903.919,1377.99 908.035,1377.36 912.151,1376.71 916.268,1376.05 920.384,1375.36 924.5,1374.66 928.617,1373.95 932.733,1373.21 936.849,1372.46 940.966,1371.7 945.082,1370.92 949.199,1370.12 953.315,1369.31 957.431,1368.49 961.548,1367.65 965.664,1366.8 969.78,1365.94 973.897,1365.06 978.013,1364.17 982.129,1363.27 986.246,1362.36 990.362,1361.44 994.479,1360.51 998.595,1359.57 1002.71,1358.62 1006.83,1357.66 1010.94,1356.69 1015.06,1355.72 1019.18,1354.74 1023.29,1353.75 1027.41,1352.75 1031.53,1351.75 1035.64,1350.74 1039.76,1349.72 1043.87,1348.7 1047.99,1347.67 1052.11,1346.64 1056.22,1345.61 1060.34,1344.57 1064.46,1343.53 1068.57,1342.49 1072.69,1341.44 1076.81,1340.4 1080.92,1339.35 1085.04,1338.29 1089.15,1337.24 1093.27,1336.19 1097.39,1335.14 1101.5,1334.09 1105.62,1333.03 1109.74,1331.98 1113.85,1330.93 1117.97,1329.88 1122.09,1328.84 1126.2,1327.8 1130.32,1326.75 1134.44,1325.72 1138.55,1324.68 1142.67,1323.65 1146.78,1322.62 1150.9,1321.6 1155.02,1320.58 1159.13,1319.57 1163.25,1318.56 1167.37,1317.56 1171.48,1316.57 1175.6,1315.58 1179.72,1314.59 1183.83,1313.62 1187.95,1312.65 1192.06,1311.69 1196.18,1310.73 1200.3,1309.79 1204.41,1308.85 1208.53,1307.92 1212.65,1307 1216.76,1306.09 1220.88,1305.19 1225,1304.3 1229.11,1303.42 1233.23,1302.54 1237.34,1301.68 1241.46,1300.83 1245.58,1299.99 1249.69,1299.16 1253.81,1298.34 1257.93,1297.54 1262.04,1296.74 1266.16,1295.96 1270.28,1295.19 1274.39,1294.43 1278.51,1293.68 1282.62,1292.94 1286.74,1292.22 1290.86,1291.51 1294.97,1290.82 1299.09,1290.13 1303.21,1289.47 1307.32,1288.81 1311.44,1288.17 1315.56,1287.54 1319.67,1286.92 1323.79,1286.32 1327.9,1285.74 1332.02,1285.16 1336.14,1284.61 1340.25,1284.06 1344.37,1283.53 1348.49,1283.02 1352.6,1282.52 1356.72,1282.04 1360.84,1281.57 1364.95,1281.11 1369.07,1280.67 1373.18,1280.25 1377.3,1279.84 1381.42,1279.44 1385.53,1279.06 1389.65,1278.7 1393.77,1278.35 1397.88,1278.02 1402,1277.7 1406.12,1277.4 1410.23,1277.11 1414.35,1276.84 1418.46,1276.58 1422.58,1276.34 1426.7,1276.11 1430.81,1275.9 1434.93,1275.7 1439.05,1275.52 1443.16,1275.36 1447.28,1275.21 1451.4,1275.07 1455.51,1274.95 1459.63,1274.85 1463.74,1274.76 1467.86,1274.68 1471.98,1274.62 1476.09,1274.58 1480.21,1274.55 1484.33,1274.53 1488.44,1274.53 1492.56,1274.54 1496.68,1274.57 1500.79,1274.61 1504.91,1274.66 1509.02,1274.73 1513.14,1274.82 1517.26,1274.91 1521.37,1275.02 1525.49,1275.15 1529.61,1275.28 1533.72,1275.43 1537.84,1275.6 1541.96,1275.78 1546.07,1275.96 1550.19,1276.17 1554.3,1276.38 1558.42,1276.61 1562.54,1276.85 1566.65,1277.1 1570.77,1277.36 1574.89,1277.64 1579,1277.93 1583.12,1278.22 1587.24,1278.53 1591.35,1278.85 1595.47,1279.18 1599.58,1279.53 1603.7,1279.88 1607.82,1280.24 1611.93,1280.61 1616.05,1280.99 1620.17,1281.39 1624.28,1281.79 1628.4,1282.2 1632.52,1282.62 1636.63,1283.05 1640.75,1283.48 1644.86,1283.93 1648.98,1284.38 1653.1,1284.84 1657.21,1285.31 1661.33,1285.79 1665.45,1286.27 1669.56,1286.77 1673.68,1287.26 1677.8,1287.77 1681.91,1288.28 1686.03,1288.8 1690.14,1289.32 1694.26,1289.85 1698.38,1290.39 1702.49,1290.92 1706.61,1291.47 1710.73,1292.02 1714.84,1292.57 1718.96,1293.13 1723.08,1293.7 1727.19,1294.26 1731.31,1294.83 1735.42,1295.41 1739.54,1295.98 1743.66,1296.56 1747.77,1297.14 1751.89,1297.73 1756.01,1298.32 1760.12,1298.9 1764.24,1299.5 1768.36,1300.09 1772.47,1300.68 1776.59,1301.28 1780.7,1301.87 1784.82,1302.47 1788.94,1303.06 1793.05,1303.66 1797.17,1304.26 1801.29,1304.85 1805.4,1305.45 1809.52,1306.04 1813.64,1306.64 1817.75,1307.23 1821.87,1307.82 1825.98,1308.41 1830.1,1309 1834.22,1309.58 1838.33,1310.17 1842.45,1310.75 1846.57,1311.32 1850.68,1311.9 1854.8,1312.47 1858.92,1313.04 1863.03,1313.6 1867.15,1314.17 1871.26,1314.72 1875.38,1315.28 1879.5,1315.83 1883.61,1316.37 1887.73,1316.91 1891.85,1317.45 1895.96,1317.98 1900.08,1318.5 1904.2,1319.02 1908.31,1319.53 1912.43,1320.04 1916.54,1320.54 1920.66,1321.04 1924.78,1321.53 1928.89,1322.01 1933.01,1322.49 1937.13,1322.96 1941.24,1323.43 1945.36,1323.88 1949.48,1324.33 1953.59,1324.77 1957.71,1325.21 1961.82,1325.64 1965.94,1326.06 1970.06,1326.47 1974.17,1326.87 1978.29,1327.27 1982.41,1327.66 1986.52,1328.04 1990.64,1328.41 1994.76,1328.77 1998.87,1329.12 2002.99,1329.47 2007.1,1329.81 2011.22,1330.13 2015.34,1330.45 2019.45,1330.76 2023.57,1331.07 2027.69,1331.36 2031.8,1331.64 2035.92,1331.91 2040.04,1332.18 2044.15,1332.43 2048.27,1332.68 2052.38,1332.91 2056.5,1333.14 2060.62,1333.36 2064.73,1333.56 2068.85,1333.76 2072.97,1333.95 2077.08,1334.13 2081.2,1334.3 2085.32,1334.45 2089.43,1334.6 2093.55,1334.74 2097.66,1334.87 2101.78,1334.99 2105.9,1335.1 2110.01,1335.2 2114.13,1335.29 2118.25,1335.37 2122.36,1335.44 2126.48,1335.5 2130.6,1335.55 2134.71,1335.59 2138.83,1335.62 2142.94,1335.64 2147.06,1335.65 2151.18,1335.65 2155.29,1335.64 2159.41,1335.63 2163.53,1335.6 2167.64,1335.56 2171.76,1335.52 2175.88,1335.46 2179.99,1335.4 2184.11,1335.32 2188.22,1335.24 2192.34,1335.15 2196.46,1335.05 2200.57,1334.94 2204.69,1334.82 2208.81,1334.69 2212.92,1334.55 2217.04,1334.41 2221.16,1334.26 2225.27,1334.09 2229.39,1333.92 2233.5,1333.75 2237.62,1333.56 2241.74,1333.37 2245.85,1333.16 2249.97,1332.95 2254.09,1332.73 2258.2,1332.51 2262.32,1332.28 2266.44,1332.04 2270.55,1331.79 2274.67,1331.53 2278.78,1331.27 2282.9,1331 2287.02,1330.73 2291.13,1330.45 "/>
<path clip-path="url(#clip900)" d="M2010.02 322.316 L2280.18 322.316 L2280.18 166.796 L2010.02 166.796  Z" fill="#000000" fill-rule="evenodd" fill-opacity="0"/>
<polyline clip-path="url(#clip900)" style="stroke:#000000; stroke-linecap:round; stroke-linejoin:round; stroke-width:4; stroke-opacity:1; fill:none" points="2010.02,322.316 2280.18,322.316 2280.18,166.796 2010.02,166.796 2010.02,322.316 "/>
<polyline clip-path="url(#clip900)" style="stroke:#009af9; stroke-linecap:round; stroke-linejoin:round; stroke-width:4; stroke-opacity:1; fill:none" points="2034.21,218.636 2179.36,218.636 "/>
<path clip-path="url(#clip900)" d="M2217.4 238.323 Q2215.59 242.953 2213.88 244.365 Q2212.17 245.777 2209.3 245.777 L2205.89 245.777 L2205.89 242.212 L2208.39 242.212 Q2210.15 242.212 2211.13 241.379 Q2212.1 240.545 2213.28 237.443 L2214.04 235.499 L2203.56 209.99 L2208.07 209.99 L2216.17 230.268 L2224.27 209.99 L2228.79 209.99 L2217.4 238.323 Z" fill="#000000" fill-rule="nonzero" fill-opacity="1" /><path clip-path="url(#clip900)" d="M2236.08 231.981 L2243.72 231.981 L2243.72 205.615 L2235.41 207.282 L2235.41 203.022 L2243.67 201.356 L2248.35 201.356 L2248.35 231.981 L2255.99 231.981 L2255.99 235.916 L2236.08 235.916 L2236.08 231.981 Z" fill="#000000" fill-rule="nonzero" fill-opacity="1" /><polyline clip-path="url(#clip900)" style="stroke:#e26f46; stroke-linecap:round; stroke-linejoin:round; stroke-width:4; stroke-opacity:1; fill:none" points="2034.21,270.476 2179.36,270.476 "/>
<path clip-path="url(#clip900)" d="M2217.4 290.163 Q2215.59 294.793 2213.88 296.205 Q2212.17 297.617 2209.3 297.617 L2205.89 297.617 L2205.89 294.052 L2208.39 294.052 Q2210.15 294.052 2211.13 293.219 Q2212.1 292.385 2213.28 289.283 L2214.04 287.339 L2203.56 261.83 L2208.07 261.83 L2216.17 282.108 L2224.27 261.83 L2228.79 261.83 L2217.4 290.163 Z" fill="#000000" fill-rule="nonzero" fill-opacity="1" /><path clip-path="url(#clip900)" d="M2239.3 283.821 L2255.62 283.821 L2255.62 287.756 L2233.67 287.756 L2233.67 283.821 Q2236.33 281.066 2240.92 276.436 Q2245.52 271.784 2246.7 270.441 Q2248.95 267.918 2249.83 266.182 Q2250.73 264.423 2250.73 262.733 Q2250.73 259.978 2248.79 258.242 Q2246.87 256.506 2243.76 256.506 Q2241.57 256.506 2239.11 257.27 Q2236.68 258.034 2233.9 259.585 L2233.9 254.862 Q2236.73 253.728 2239.18 253.149 Q2241.63 252.571 2243.67 252.571 Q2249.04 252.571 2252.24 255.256 Q2255.43 257.941 2255.43 262.432 Q2255.43 264.561 2254.62 266.483 Q2253.83 268.381 2251.73 270.973 Q2251.15 271.645 2248.05 274.862 Q2244.94 278.057 2239.3 283.821 Z" fill="#000000" fill-rule="nonzero" fill-opacity="1" /></svg>
